<?xml version="1.0" encoding="utf-8" ?>
<svg baseProfile="full" height="600" version="1.1" width="600" xmlns="http://www.w3.org/2000/svg" xmlns:ev="http://www.w3.org/2001/xml-events" xmlns:xlink="http://www.w3.org/1999/xlink"><defs /><circle cx="315.0" cy="585.0" fill="#000040" r="5" /><circle cx="315.0" cy="585.0" fill="#000040" r="5" /><circle cx="315.0" cy="555.0" fill="#000040" r="5" /><circle cx="315.0" cy="525.0" fill="#000040" r="5" /><circle cx="315.0" cy="495.0" fill="#000040" r="5" /><circle cx="315.0" cy="465.0" fill="#000040" r="5" /><circle cx="285.0" cy="465.0" fill="#000040" r="5" /><circle cx="255.0" cy="465.0" fill="#000040" r="5" /><circle cx="225.0" cy="465.0" fill="#000040" r="5" /><circle cx="195.0" cy="465.0" fill="#000040" r="5" /><circle cx="195.0" cy="435.0" fill="#000040" r="5" /><circle cx="195.0" cy="405.0" fill="#000040" r="5" /><circle cx="195.0" cy="375.0" fill="#000040" r="5" /><circle cx="195.0" cy="345.0" fill="#000040" r="5" /><circle cx="195.0" cy="315.0" fill="#000040" r="5" /><circle cx="315.0" cy="465.0" fill="#000040" r="5" /><circle cx="315.0" cy="465.0" fill="#000040" r="5" /><circle cx="315.0" cy="435.0" fill="#000040" r="5" /><circle cx="315.0" cy="405.0" fill="#000040" r="5" /><circle cx="315.0" cy="375.0" fill="#000040" r="5" /><circle cx="315.0" cy="345.0" fill="#000040" r="5" /><circle cx="315.0" cy="315.0" fill="#000040" r="5" /><circle cx="315.0" cy="285.0" fill="#000040" r="5" /><circle cx="315.0" cy="255.0" fill="#000040" r="5" /><circle cx="285.0" cy="255.0" fill="#000040" r="5" /><circle cx="255.0" cy="255.0" fill="#000040" r="5" /><circle cx="225.0" cy="255.0" fill="#000040" r="5" /><circle cx="225.0" cy="225.0" fill="#000040" r="5" /><circle cx="225.0" cy="195.0" fill="#000040" r="5" /><circle cx="225.0" cy="165.0" fill="#000040" r="5" /><circle cx="195.0" cy="165.0" fill="#000040" r="5" /><circle cx="165.0" cy="165.0" fill="#000040" r="5" /><circle cx="315.0" cy="405.0" fill="#000040" r="5" /><circle cx="315.0" cy="405.0" fill="#000040" r="5" /><circle cx="345.0" cy="405.0" fill="#000040" r="5" /><circle cx="375.0" cy="405.0" fill="#000040" r="5" /><circle cx="375.0" cy="375.0" fill="#000040" r="5" /><circle cx="345.0" cy="375.0" fill="#000040" r="5" /><circle cx="345.0" cy="345.0" fill="#000040" r="5" /><circle cx="345.0" cy="315.0" fill="#000040" r="5" /><circle cx="375.0" cy="315.0" fill="#000040" r="5" /><circle cx="405.0" cy="315.0" fill="#000040" r="5" /><circle cx="435.0" cy="315.0" fill="#000040" r="5" /><circle cx="465.0" cy="315.0" fill="#000040" r="5" /><circle cx="315.0" cy="285.0" fill="#000040" r="5" /><circle cx="315.0" cy="285.0" fill="#000040" r="5" /><circle cx="315.0" cy="255.0" fill="#000040" r="5" /><circle cx="315.0" cy="225.0" fill="#000040" r="5" /><circle cx="345.0" cy="225.0" fill="#000040" r="5" /><circle cx="375.0" cy="225.0" fill="#000040" r="5" /><circle cx="405.0" cy="225.0" fill="#000040" r="5" /><circle cx="435.0" cy="225.0" fill="#000040" r="5" /><circle cx="435.0" cy="195.0" fill="#000040" r="5" /><circle cx="435.0" cy="165.0" fill="#000040" r="5" /><circle cx="435.0" cy="135.0" fill="#000040" r="5" /><circle cx="465.0" cy="135.0" fill="#000040" r="5" /><circle cx="495.0" cy="135.0" fill="#000040" r="5" /><circle cx="495.0" cy="165.0" fill="#000040" r="5" /><circle cx="525.0" cy="165.0" fill="#000040" r="5" /><circle cx="555.0" cy="165.0" fill="#000040" r="5" /><circle cx="465.0" cy="315.0" fill="#000040" r="5" /><circle cx="465.0" cy="315.0" fill="#000040" r="5" /><circle cx="195.0" cy="315.0" fill="#000040" r="5" /><circle cx="195.0" cy="315.0" fill="#000040" r="5" /><circle cx="165.0" cy="165.0" fill="#000040" r="5" /><circle cx="165.0" cy="165.0" fill="#000040" r="5" /><circle cx="555.0" cy="165.0" fill="#000040" r="5" /><circle cx="555.0" cy="165.0" fill="#000040" r="5" /><circle cx="345.0" cy="225.0" fill="#000040" r="5" /><circle cx="345.0" cy="225.0" fill="#000040" r="5" /><circle cx="345.0" cy="195.0" fill="#000040" r="5" /><circle cx="345.0" cy="165.0" fill="#000040" r="5" /><circle cx="345.0" cy="135.0" fill="#000040" r="5" /><circle cx="345.0" cy="105.0" fill="#000040" r="5" /><circle cx="345.0" cy="75.0" fill="#000040" r="5" /><circle cx="345.0" cy="45.0" fill="#000040" r="5" /><circle cx="315.0" cy="45.0" fill="#000040" r="5" /><circle cx="285.0" cy="45.0" fill="#000040" r="5" /><circle cx="285.0" cy="15.0" fill="#000040" r="5" /><circle cx="285.0" cy="15.0" fill="#000040" r="5" /><circle cx="285.0" cy="15.0" fill="#000040" r="5" /><line stroke="#000040" stroke-width="10" x1="315.0" x2="315.0" y1="585.0" y2="555.0" /><line stroke="#000040" stroke-width="10" x1="315.0" x2="315.0" y1="555.0" y2="525.0" /><line stroke="#000040" stroke-width="10" x1="315.0" x2="315.0" y1="525.0" y2="495.0" /><line stroke="#000040" stroke-width="10" x1="315.0" x2="315.0" y1="495.0" y2="465.0" /><line stroke="#000040" stroke-width="10" x1="315.0" x2="285.0" y1="465.0" y2="465.0" /><line stroke="#000040" stroke-width="10" x1="285.0" x2="255.0" y1="465.0" y2="465.0" /><line stroke="#000040" stroke-width="10" x1="255.0" x2="225.0" y1="465.0" y2="465.0" /><line stroke="#000040" stroke-width="10" x1="225.0" x2="195.0" y1="465.0" y2="465.0" /><line stroke="#000040" stroke-width="10" x1="195.0" x2="195.0" y1="465.0" y2="435.0" /><line stroke="#000040" stroke-width="10" x1="195.0" x2="195.0" y1="435.0" y2="405.0" /><line stroke="#000040" stroke-width="10" x1="195.0" x2="195.0" y1="405.0" y2="375.0" /><line stroke="#000040" stroke-width="10" x1="195.0" x2="195.0" y1="375.0" y2="345.0" /><line stroke="#000040" stroke-width="10" x1="195.0" x2="195.0" y1="345.0" y2="315.0" /><line stroke="#000040" stroke-width="10" x1="315.0" x2="315.0" y1="465.0" y2="435.0" /><line stroke="#000040" stroke-width="10" x1="315.0" x2="315.0" y1="435.0" y2="405.0" /><line stroke="#000040" stroke-width="10" x1="315.0" x2="315.0" y1="405.0" y2="375.0" /><line stroke="#000040" stroke-width="10" x1="315.0" x2="315.0" y1="375.0" y2="345.0" /><line stroke="#000040" stroke-width="10" x1="315.0" x2="315.0" y1="345.0" y2="315.0" /><line stroke="#000040" stroke-width="10" x1="315.0" x2="315.0" y1="315.0" y2="285.0" /><line stroke="#000040" stroke-width="10" x1="315.0" x2="315.0" y1="285.0" y2="255.0" /><line stroke="#000040" stroke-width="10" x1="315.0" x2="285.0" y1="255.0" y2="255.0" /><line stroke="#000040" stroke-width="10" x1="285.0" x2="255.0" y1="255.0" y2="255.0" /><line stroke="#000040" stroke-width="10" x1="255.0" x2="225.0" y1="255.0" y2="255.0" /><line stroke="#000040" stroke-width="10" x1="225.0" x2="225.0" y1="255.0" y2="225.0" /><line stroke="#000040" stroke-width="10" x1="225.0" x2="225.0" y1="225.0" y2="195.0" /><line stroke="#000040" stroke-width="10" x1="225.0" x2="225.0" y1="195.0" y2="165.0" /><line stroke="#000040" stroke-width="10" x1="225.0" x2="195.0" y1="165.0" y2="165.0" /><line stroke="#000040" stroke-width="10" x1="195.0" x2="165.0" y1="165.0" y2="165.0" /><line stroke="#000040" stroke-width="10" x1="315.0" x2="345.0" y1="405.0" y2="405.0" /><line stroke="#000040" stroke-width="10" x1="345.0" x2="375.0" y1="405.0" y2="405.0" /><line stroke="#000040" stroke-width="10" x1="375.0" x2="375.0" y1="405.0" y2="375.0" /><line stroke="#000040" stroke-width="10" x1="375.0" x2="345.0" y1="375.0" y2="375.0" /><line stroke="#000040" stroke-width="10" x1="345.0" x2="345.0" y1="375.0" y2="345.0" /><line stroke="#000040" stroke-width="10" x1="345.0" x2="345.0" y1="345.0" y2="315.0" /><line stroke="#000040" stroke-width="10" x1="345.0" x2="375.0" y1="315.0" y2="315.0" /><line stroke="#000040" stroke-width="10" x1="375.0" x2="405.0" y1="315.0" y2="315.0" /><line stroke="#000040" stroke-width="10" x1="405.0" x2="435.0" y1="315.0" y2="315.0" /><line stroke="#000040" stroke-width="10" x1="435.0" x2="465.0" y1="315.0" y2="315.0" /><line stroke="#000040" stroke-width="10" x1="315.0" x2="315.0" y1="285.0" y2="255.0" /><line stroke="#000040" stroke-width="10" x1="315.0" x2="315.0" y1="255.0" y2="225.0" /><line stroke="#000040" stroke-width="10" x1="315.0" x2="345.0" y1="225.0" y2="225.0" /><line stroke="#000040" stroke-width="10" x1="345.0" x2="375.0" y1="225.0" y2="225.0" /><line stroke="#000040" stroke-width="10" x1="375.0" x2="405.0" y1="225.0" y2="225.0" /><line stroke="#000040" stroke-width="10" x1="405.0" x2="435.0" y1="225.0" y2="225.0" /><line stroke="#000040" stroke-width="10" x1="435.0" x2="435.0" y1="225.0" y2="195.0" /><line stroke="#000040" stroke-width="10" x1="435.0" x2="435.0" y1="195.0" y2="165.0" /><line stroke="#000040" stroke-width="10" x1="435.0" x2="435.0" y1="165.0" y2="135.0" /><line stroke="#000040" stroke-width="10" x1="435.0" x2="465.0" y1="135.0" y2="135.0" /><line stroke="#000040" stroke-width="10" x1="465.0" x2="495.0" y1="135.0" y2="135.0" /><line stroke="#000040" stroke-width="10" x1="495.0" x2="495.0" y1="135.0" y2="165.0" /><line stroke="#000040" stroke-width="10" x1="495.0" x2="525.0" y1="165.0" y2="165.0" /><line stroke="#000040" stroke-width="10" x1="525.0" x2="555.0" y1="165.0" y2="165.0" /><line stroke="#000040" stroke-width="10" x1="345.0" x2="345.0" y1="225.0" y2="195.0" /><line stroke="#000040" stroke-width="10" x1="345.0" x2="345.0" y1="195.0" y2="165.0" /><line stroke="#000040" stroke-width="10" x1="345.0" x2="345.0" y1="165.0" y2="135.0" /><line stroke="#000040" stroke-width="10" x1="345.0" x2="345.0" y1="135.0" y2="105.0" /><line stroke="#000040" stroke-width="10" x1="345.0" x2="345.0" y1="105.0" y2="75.0" /><line stroke="#000040" stroke-width="10" x1="345.0" x2="345.0" y1="75.0" y2="45.0" /><line stroke="#000040" stroke-width="10" x1="345.0" x2="315.0" y1="45.0" y2="45.0" /><line stroke="#000040" stroke-width="10" x1="315.0" x2="285.0" y1="45.0" y2="45.0" /><line stroke="#000040" stroke-width="10" x1="285.0" x2="285.0" y1="45.0" y2="15.0" /></svg>