<?xml version="1.0" encoding="utf-8" ?>
<svg baseProfile="tiny" height="600" version="1.2" width="600" xmlns="http://www.w3.org/2000/svg" xmlns:ev="http://www.w3.org/2001/xml-events" xmlns:xlink="http://www.w3.org/1999/xlink"><defs /><line stroke="#ee45fc" stroke-linecap="round" stroke-width="10" x1="435" x2="405" y1="105" y2="105" /><line stroke="#ee45fc" stroke-linecap="round" stroke-width="10" x1="405" x2="375" y1="105" y2="105" /><line stroke="#ee45fc" stroke-linecap="round" stroke-width="10" x1="375" x2="345" y1="105" y2="105" /><line stroke="#ee45fc" stroke-linecap="round" stroke-width="10" x1="345" x2="345" y1="105" y2="135" /><line stroke="#ee45fc" stroke-linecap="round" stroke-width="10" x1="345" x2="345" y1="135" y2="165" /><line stroke="#ee45fc" stroke-linecap="round" stroke-width="10" x1="345" x2="315" y1="165" y2="165" /><line stroke="#ee45fc" stroke-linecap="round" stroke-width="10" x1="315" x2="285" y1="165" y2="165" /><line stroke="#ee45fc" stroke-linecap="round" stroke-width="10" x1="435" x2="435" y1="165" y2="195" /><line stroke="#ee45fc" stroke-linecap="round" stroke-width="10" x1="435" x2="405" y1="195" y2="195" /><line stroke="#ee45fc" stroke-linecap="round" stroke-width="10" x1="405" x2="405" y1="195" y2="225" /><line stroke="#ee45fc" stroke-linecap="round" stroke-width="10" x1="405" x2="405" y1="225" y2="255" /><line stroke="#ee45fc" stroke-linecap="round" stroke-width="10" x1="405" x2="405" y1="255" y2="285" /><line stroke="#ee45fc" stroke-linecap="round" stroke-width="10" x1="195" x2="225" y1="225" y2="225" /><line stroke="#ee45fc" stroke-linecap="round" stroke-width="10" x1="225" x2="255" y1="225" y2="225" /><line stroke="#ee45fc" stroke-linecap="round" stroke-width="10" x1="255" x2="285" y1="225" y2="225" /><line stroke="#ee45fc" stroke-linecap="round" stroke-width="10" x1="285" x2="285" y1="225" y2="255" /><line stroke="#ee45fc" stroke-linecap="round" stroke-width="10" x1="285" x2="285" y1="255" y2="285" /><line stroke="#ee45fc" stroke-linecap="round" stroke-width="10" x1="285" x2="315" y1="285" y2="285" /><circle cx="285" cy="165" fill="#ee45fc" r="15" /><circle cx="435" cy="105" fill="#ee45fc" r="15" /><circle cx="405" cy="285" fill="#ee45fc" r="15" /><circle cx="435" cy="165" fill="#ee45fc" r="15" /><circle cx="315" cy="285" fill="#ee45fc" r="15" /><circle cx="195" cy="225" fill="#ee45fc" r="15" /></svg>